<svg height="512pt" viewBox="0 -2 512.01771 512" width="512pt" xmlns="http://www.w3.org/2000/svg"><path d="m510.679688 480.761719c-14.316407-26.175781-60.117188-54.207031-96.917969-76.757813-14.890625-9.128906-28.949219-17.726562-32.898438-21.675781-8.574219-8.574219-20.285156-34.410156-35.113281-67.136719-7.679688-16.957031-16.488281-36.394531-26.816406-57.941406-18.003906-37.460938-51.113282-78.335938-80.363282-114.367188-21.992187-27.136718-42.792968-52.800781-47.167968-65.75-13.460938-39.828124-48.210938-61.738281-93.289063-60.671874-31.703125-14.398438-57.195312-23.210938-91.347656-9.855469-4.011719 1.578125-6.6992188 5.460937-6.765625 9.792969-.0625 4.332031 2.496094 8.277343 6.507812 9.960937 8.746094 3.734375 14.847657 12.375 21.332032 21.546875 7.722656 10.925781 16.941406 23.957031 32.683594 29.761719-32.53125 95.082031-19.882813 180.734375 37.738281 254.761719 29.613281 38.058593 98.644531 58.476562 144.34375 71.980468 7.804687 2.28125 14.867187 4.394532 20.820312 6.292969 15.144531 4.882813 29.992188 24.703125 44.394531 43.882813 18.945313 25.257812 38.550782 51.371093 65.042969 52.628906.386719.019531 11.628907.449218 27.566407.449218 39.292968 0 107.113281-2.453124 111.292968-19.160156.621094-2.644531.257813-5.394531-1.042968-7.742187zm0 0" fill="#455a64"/><path d="m317.398438 329.570312c-3.859376-4.457031-10.601563-4.925781-15.039063-1.085937-.875.765625-2.007813 1.28125-3.007813 1.941406l-167.488281-102.359375c-1.6875-4.074218-3.179687-8.082031-4.308593-11.882812-1.664063-5.628906-7.511719-8.851563-13.25-7.210938-5.652344 1.664063-8.875 7.597656-7.210938 13.25 17.34375 58.878906 78.742188 126.398438 158.335938 135.574219 3.285156.382813 6.550781.554687 9.730468.554687 16.191406 0 30.824219-4.84375 41.148438-13.78125 4.460937-3.820312 4.953125-10.5625 1.089844-15zm0 0" fill="#607d8b"/><path d="m398.359375 507.554688c-14.847656 0-25.175781-.339844-25.515625-.363282-26.496094-1.257812-46.101562-27.367187-65.046875-52.628906-14.398437-19.15625-29.246094-38.996094-44.394531-43.859375-5.929688-1.921875-12.992188-4.011719-20.839844-6.316406-45.699219-13.503907-114.710938-33.898438-144.320312-71.957031-57.601563-74.046876-70.25-159.699219-37.738282-254.761719-15.703125-5.824219-24.941406-18.878907-32.664062-29.78125-6.484375-9.152344-12.585938-17.8125-21.332032-21.527344-4.011718-1.703125-6.570312-5.652344-6.507812-9.980469.0664062-4.332031 2.753906-8.195312 6.765625-9.773437 34.238281-13.375 59.710937-4.542969 91.367187 9.855469 45.292969-1.066407 79.851563 20.867187 93.292969 60.671874 4.371094 12.972657 25.171875 38.613282 47.1875 65.773438 29.207031 36.050781 62.335938 76.90625 80.34375 114.367188 10.304688 21.523437 19.113281 40.960937 26.816407 57.941406 14.804687 32.726562 26.515624 58.558594 35.113281 67.136718 3.945312 3.945313 18.003906 12.542969 32.894531 21.671876 36.800781 22.53125 82.605469 50.582031 96.917969 76.757812 1.300781 2.347656 1.644531 5.121094 1.003906 7.703125-4.203125 16.703125-74.390625 19.070313-113.34375 19.070313zm-363.753906-485.929688c3.988281 4.523438 7.421875 9.367188 10.644531 13.953125 9.898438 13.972656 16.617188 22.589844 30.25 23.65625 3.347656.257813 6.378906 2.09375 8.171875 4.90625 1.8125 2.839844 2.175781 6.335937.980469 9.496094-34.835938 92.265625-24.597656 174.933593 30.441406 245.671875 25.386719 32.664062 90.453125 51.882812 133.527344 64.597656 8.019531 2.371094 15.253906 4.503906 21.332031 6.464844 21.589844 6.957031 38.527344 29.546875 54.910156 51.371094 15.980469 21.3125 32.492188 43.347656 48.984375 44.117187 32.019532 1.558594 86.824219-1.363281 110.421875-5.203125-17.964843-19.523438-55.46875-42.476562-81.621093-58.496094-19.863282-12.160156-31.382813-19.308594-36.84375-24.792968-11.328126-11.324219-22.527344-36.007813-39.46875-73.40625-7.613282-16.851563-16.363282-36.136719-26.621094-57.515626-16.898438-35.199218-49.195313-75.027343-77.675782-110.183593-25.257812-31.148438-45.207031-55.765625-50.816406-72.363281-13.566406-40.152344-48.339844-47.277344-74.773437-46.039063-1.664063.191406-3.371094-.277344-4.886719-.960937-22.015625-10.089844-38.910156-16.851563-56.957031-15.273438zm0 0"/><path d="m275.160156 358.371094c-3.179687 0-6.445312-.191406-9.730468-.574219-79.574219-9.195313-140.96875-76.714844-158.335938-135.574219-1.664062-5.652344 1.558594-11.585937 7.210938-13.25 5.738281-1.703125 11.585937 1.558594 13.25 7.210938 13.203124 44.800781 65.46875 111.789062 140.328124 120.429687 13.972657 1.597657 26.605469-1.324219 34.453126-8.128906 4.4375-3.863281 11.179687-3.371094 15.042968 1.066406 3.859375 4.457031 3.367188 11.179688-1.089844 15.0625-10.28125 8.914063-24.9375 13.757813-41.128906 13.757813zm0 0"/><path d="m138.667969 59.191406c0 5.894532-4.777344 10.667969-10.667969 10.667969s-10.664062-4.773437-10.664062-10.667969c0-5.890625 4.773437-10.664062 10.664062-10.664062s10.667969 4.773437 10.667969 10.664062zm0 0"/><path d="m138.667969 485.859375c-1.472657 0-2.964844-.296875-4.375-.9375-5.375-2.410156-7.765625-8.726563-5.351563-14.101563 16.875-37.417968 23.804688-81.300781 20.542969-100.5-.980469-5.804687 2.921875-11.308593 8.726563-12.3125 5.78125-.894531 11.304687 2.925782 12.308593 8.746094 4.480469 26.414063-5.015625 74.925782-22.125 112.832032-1.789062 3.949218-5.671875 6.273437-9.726562 6.273437zm0 0"/><path d="m138.667969 485.859375c-.851563 0-1.726563-.105469-2.582031-.320313l-85.332032-21.332031c-5.738281-1.429687-9.195312-7.210937-7.765625-12.929687 1.40625-5.738282 7.167969-9.195313 12.925781-7.765625l47.980469 11.992187-15.445312-15.445312c-4.160157-4.160156-4.160157-10.925782 0-15.085938 4.160156-4.160156 10.921875-4.160156 15.082031 0l42.667969 42.667969c3.390625 3.390625 4.09375 8.621094 1.75 12.800781-1.921875 3.414063-5.503907 5.417969-9.28125 5.417969zm0 0"/><path d="m74.667969 507.191406c-4.457031 0-8.617188-2.8125-10.132813-7.292968-1.855468-5.589844 1.171875-11.628907 6.742188-13.484376l64-21.332031c1.085937-.363281 2.21875-.554687 3.371094-.554687h42.664062c5.890625 0 10.667969 4.777344 10.667969 10.664062 0 5.890625-4.777344 10.667969-10.667969 10.667969h-40.917969l-62.355469 20.777344c-1.132812.386719-2.242187.554687-3.371093.554687zm0 0"/><path d="m266.667969 464.527344c-1.621094 0-3.265625-.386719-4.777344-1.132813l-42.667969-21.332031c-5.269531-2.644531-7.402344-9.046875-4.777344-14.316406 2.644532-5.269532 9.042969-7.359375 14.3125-4.777344l27.242188 13.632812v-36.074218c0-5.890625 4.78125-10.667969 10.667969-10.667969s10.667969 4.777344 10.667969 10.667969v53.332031c0 3.691406-1.921876 7.125-5.058594 9.066406-1.707032 1.089844-3.648438 1.601563-5.609375 1.601563zm0 0"/><path d="m288 485.859375c-2.730469 0-5.460938-1.046875-7.550781-3.113281l-17.449219-17.453125-58.582031 9.773437c-5.738281 1.042969-11.308594-2.945312-12.265625-8.769531-.984375-5.800781 2.964844-11.304687 8.765625-12.265625l64-10.667969c3.414062-.554687 6.847656.535157 9.300781 2.988281l21.335938 21.332032c4.160156 4.160156 4.160156 10.921875 0 15.082031-2.09375 2.070313-4.824219 3.09375-7.554688 3.09375zm0 0"/><path d="m256 485.859375c-1.597656 0-3.21875-.363281-4.777344-1.128906-5.269531-2.648438-7.402344-9.046875-4.777344-14.316407l10.664063-21.332031c2.667969-5.269531 9.046875-7.382812 14.316406-4.78125 5.269531 2.648438 7.402344 9.046875 4.777344 14.316407l-10.664063 21.332031c-1.878906 3.757812-5.632812 5.910156-9.539062 5.910156zm0 0"/><path d="m441.664062 504.207031c-1.511718 0-3.09375-.320312-4.542968-1.003906-23.828125-11.21875-50.132813-35.925781-73.324219-57.726563-11.027344-10.347656-21.417969-20.117187-28.882813-25.730468-4.714843-3.539063-5.675781-10.21875-2.15625-14.933594 3.585938-4.710938 10.261719-5.628906 14.933594-2.132812 8.425782 6.316406 18.753906 16 30.679688 27.242187 20.949218 19.691406 47.015625 44.183594 67.796875 53.953125 5.332031 2.519531 7.613281 8.875 5.097656 14.207031-1.769531 3.863281-5.589844 6.125-9.601563 6.125zm0 0"/></svg>