<svg id="Capa_1" enable-background="new 0 0 512 512" height="512" viewBox="0 0 512 512" width="512" xmlns="http://www.w3.org/2000/svg"><g clip-rule="evenodd" fill-rule="evenodd"><path d="m96.824 352.532c26.532.595 51.816 6.831 74.606 17.716-.737-19.899-.737-39.146 0-57.684-20.976-11.65-52.185-9.978-71.857 4.394-1.162 11.537-2.069 23.385-2.749 35.574z" fill="#ffda8f"/><path d="m99.573 316.958c19.672-14.371 50.881-16.044 71.857-4.394.709-17.574 2.069-34.525 4.167-50.824-20.976-11.65-49.237-10.063-68.909 4.309-3.004 16.27-5.357 33.221-7.115 50.909z" fill="#ffe6b4"/><path d="m175.597 261.74c2.324-18.283 5.556-35.773 9.694-52.44-19.389-11.622-47.621-9.949-65.819 4.365-5.187 16.639-9.411 34.072-12.784 52.383 19.672-14.371 47.933-15.958 68.909-4.308z" fill="#ffda8f"/><path d="m185.291 209.3c4.45-18.028 10.006-35.149 16.696-51.306-7.086-4.762-14.23-9.241-21.344-13.266-11.31 1.134-22.96 3.005-34.667 5.442-10.743 19.842-19.502 40.931-26.503 63.495 18.197-14.314 46.43-15.987 65.818-4.365z" fill="#ffe6b4"/><path d="m10 200.003c21.628-13.351 79.284-38.04 135.975-49.832 11.707-2.438 23.357-4.309 34.667-5.442-24.718-18.255-55.189-34.157-83.762-46.544-52.95 5.385-86.029 49.86-86.88 101.818z" fill="#a0e5a5"/><path d="m96.881 98.184c28.573 12.387 59.045 28.289 83.762 46.544 10.063-55.501-15.449-87.277-53.602-103.406-38.919-16.44-84.726 2.863-110.039 29.962 16.185 2.976 46.771 12.557 79.879 26.9z" fill="#d0f2d2"/><path d="m276.055 135.884c36.056.227 67.917 3.77 83.932 7.568-8.532-24.377-27.666-49.294-52.752-62.389-10.942-5.726-23.017-9.184-35.858-9.382-41.442-.595-77.583 18.198-90.735 73.047 29.962-6.746 64.261-9.042 95.413-8.844z" fill="#d0f2d2"/><path d="m314.52 264.093c9.694-23.017 11.877-47.423 6.406-69.504-5.924-23.896-20.806-45.042-44.872-58.704-31.152-.198-65.451 2.098-95.412 8.844 7.115 4.025 14.258 8.504 21.344 13.266 50.287 33.958 97.284 83.931 112.534 106.098z" fill="#a0e5a5"/><path d="m402.875 194.589c20.778 0 37.643-16.837 37.643-37.643 0-5.783-1.304-11.282-3.657-16.186-6.066-12.699-18.992-21.458-33.987-21.458 0-28.601-21.628-52.128-49.435-55.133-1.984-.227-3.997-.34-6.038-.34-15.789 0-30.075 6.633-40.166 17.234 25.086 13.096 44.22 38.012 52.752 62.389-16.015-3.798-47.876-7.342-83.932-7.568 24.066 13.663 38.947 34.809 44.872 58.704h81.948z" fill="#99ebfa"/><path d="m464.329 140.76c20.806 0 37.672-16.866 37.672-37.672 0-20.778-16.866-37.643-37.672-37.643 0-30.614-24.831-55.445-55.445-55.445-30.188 0-54.764 24.122-55.445 54.169 27.807 3.005 49.435 26.532 49.435 55.133 14.995 0 27.921 8.759 33.987 21.458z" fill="#99ebfa"/><path d="m327.985 502h174.015v-58.251c-86.653 24.916-157.008 0-157.008 0-17.518-5.046-35.801-8.05-51.533-9.638 19.304 16.611 32.315 40.507 34.526 67.889z" fill="#33d6f5"/><path d="m344.992 443.749s70.355 24.916 157.008 0v-59.64c-6.831 1.984-13.549 3.657-20.182 5.102-87.39 18.992-155.392-5.102-155.392-5.102-7.37-2.126-14.655-3.912-21.798-5.414-50.087-10.63-93.627-7.143-121.491-2.324 15.874 9.042 30.245 20.352 42.689 33.533 25.596-.595 49.435 8.56 67.633 24.207 15.732 1.588 34.016 4.593 51.533 9.638z" fill="#99ebfa"/><path d="m10 502h317.984c-2.211-27.382-15.222-51.278-34.525-67.888-18.198-15.647-42.037-24.803-67.633-24.207-12.444-13.181-26.815-24.491-42.689-33.533-3.798-2.183-7.71-4.224-11.707-6.123-22.677-10.828-47.933-17.121-74.606-17.716-1.417-.057-2.835-.057-4.252-.057-28.714 0-58.364 6.406-82.572 18.17v131.354z" fill="#ffe6b4"/><path d="m326.426 384.11s68.002 24.094 155.392 5.102c.879-36.141-20.522-70.638-56.097-84.726-45.609-18.028-97.198 4.309-115.254 49.917-3.146 7.965-5.074 16.129-5.839 24.292 7.143 1.503 14.428 3.289 21.798 5.415z" fill="#ffda8f"/></g><path d="m512 443.966v-59.856c0-3.141-1.477-6.1-3.985-7.989s-5.761-2.489-8.78-1.621c-2.668.768-5.322 1.487-7.962 2.169-3.86-36.085-27.544-67.887-61.875-81.483-50.651-20.024-108.178 4.89-128.23 55.543-2.079 5.261-3.689 10.659-4.837 16.136-44.621-7.965-83.716-5.395-111.385-.933-1.23-.669-2.468-1.326-3.715-1.969-.522-17.357-.491-34.026.111-50.04.02-1.205 1.035-29.923 4.259-52.216 2.225-17.114 5.237-33.384 9.044-48.86.326-1.473 5.732-25.223 12.009-39.345 44.443 32.277 85.625 75.913 99.631 96.26 1.878 2.728 4.968 4.33 8.235 4.33.34 0 .681-.017 1.023-.052 3.636-.374 6.778-2.701 8.196-6.07 8.996-21.385 11.892-43.142 9.273-63.382h69.863c26.271 0 47.644-21.373 47.644-47.643 0-2.096-.14-4.16-.404-6.186h14.214c26.286 0 47.672-21.386 47.672-47.672 0-23.065-16.485-42.355-38.299-46.718-4.432-31.806-31.811-56.369-64.818-56.369-17.218 0-33.477 6.63-45.781 18.669-9.859 9.645-16.292 21.902-18.655 35.236-14.304.657-28.087 6.062-39.046 15.214-10.923-4.727-22.326-7.268-33.88-7.438-24.468-.343-45.337 5.581-61.983 17.63-7.267 5.26-13.654 11.656-19.158 19.13-2.026-9.06-5.294-17.489-9.826-25.233-10.384-17.742-27.078-31.569-49.622-41.099-20.248-8.553-43.425-9.13-67.027-1.669-20.529 6.49-39.782 18.57-54.211 34.017-2.495 2.67-3.334 6.489-2.188 9.959 1.145 3.471 4.092 6.04 7.686 6.702 11.12 2.047 29.028 7.302 49.746 15.026-38.656 16.502-64.149 55.541-64.938 103.695-.06 3.653 1.878 7.048 5.054 8.855 1.535.873 3.241 1.308 4.945 1.308 1.822 0 3.643-.498 5.249-1.488 18.716-11.543 64.532-31.277 112.191-43.679-13.576 29.362-23.652 61.983-30.544 99.18-.029.143-.056.286-.079.429-4.43 24.011-7.531 49.933-9.399 78.102-28.913.717-57.77 7.432-81.789 19.104-3.443 1.674-5.629 5.167-5.629 8.995v131.355c0 5.523 4.478 10 10 10h317.984 174.016c5.522 0 10-4.477 10-10v-58.031c0-.001 0-.002 0-.003zm-192.235-85.882c15.994-40.397 61.875-60.27 102.274-44.301 28.101 11.129 47.259 37.554 49.558 67.271-79.526 14.986-141.156-6.134-141.829-6.37-.19-.068-.383-.13-.577-.186-4.472-1.286-8.901-2.445-13.294-3.51.916-4.376 2.205-8.694 3.868-12.904zm-8.831-114.89c-21.339-25.395-60.631-64.556-102.927-93.198 21.382-2.943 44.029-4.099 65.362-4.074 32.886 19.975 47.09 58.056 37.565 97.272zm97.95-223.194c25.058 0 45.444 20.386 45.444 45.445 0 5.523 4.478 10 10 10 15.259 0 27.672 12.401 27.672 27.643 0 15.258-12.413 27.672-27.672 27.672h-21.68c-6.883-10.42-17.739-17.996-30.401-20.532-3.641-26.152-22.794-47.396-47.83-54.142 4.371-20.52 22.805-36.086 44.467-36.086zm-61.482 53.829c1.562 0 3.106.08 4.629.234.106.015.212.028.32.04 22.754 2.474 40.524 21.797 40.524 45.198 0 5.523 4.478 10 10 10 15.243 0 27.644 12.401 27.644 27.644 0 15.242-12.4 27.643-27.644 27.643h-74.408c-4.641-13.997-12.178-26.817-22.374-37.707 22.078 1.28 40.587 3.69 51.585 6.301 3.555.845 7.289-.319 9.737-3.034 2.447-2.715 3.219-6.55 2.011-10-6.983-19.947-19.73-38.76-35.894-52.974-2.939-2.585-5.957-4.96-9.03-7.164 6.866-4.026 14.694-6.181 22.9-6.181zm-77.933 7.838c.584 0 1.172.004 1.762.013 11.052.163 21.53 3.15 31.103 8.088.231.13.464.253.702.363 16.847 8.899 30.824 23.858 40.03 40.189-17.323-2.373-40.859-4.233-66.631-4.423-.147-.005-.294-.006-.441-.005-26.081-.173-54.428 1.37-80.94 5.831 12.648-33.242 37.613-50.056 74.415-50.056zm-146.322-31.134c34.783 14.704 51.399 40.392 49.548 76.489-22.35-14.684-47.532-27.463-71.368-37.79-.323-.161-.655-.302-.996-.428-23.586-10.167-45.796-17.92-62.556-22.718 23.693-17.74 56.916-27.575 85.372-15.553zm-27.871 57.921c19.54 8.575 39.805 18.76 58.192 30.067-3.103.566-6.21 1.176-9.318 1.821-.074.014-.147.03-.221.046-47.149 9.81-94.336 28.23-122.228 41.943 7.078-39.721 35.421-68.846 73.575-73.877zm83.203 46.559c3.726 2.163 7.463 4.458 11.199 6.86-4.141 10.724-7.839 21.836-11.08 33.373-13.275-4.55-28.144-4.862-41.813-1.121 4.696-12.269 9.952-23.921 15.784-35.057 8.778-1.727 17.468-3.113 25.91-4.055zm-50.435 64.774c12.778-8.599 31.142-10.491 45.594-5.04-2.416 10.561-4.487 21.459-6.215 32.704-15.042-4.67-31.751-4.451-46.785.453 2.216-9.712 4.682-19.071 7.406-28.117zm-12.262 52.191c14.36-8.854 33.25-10.454 48.948-4.319-1.119 9.854-1.995 19.958-2.628 30.333-16.142-4.644-34.555-4.018-50.502 1.591 1.213-9.491 2.605-18.691 4.182-27.605zm45.386 46.779c-.344 11.727-.395 23.786-.164 36.177-17.214-6.527-35.151-10.509-53.572-11.898.466-6.926 1.003-13.719 1.623-20.363 14.824-8.793 35.942-10.326 52.113-3.916zm-141.168 173.243v-114.951c21.645-9.425 47.159-14.573 72.571-14.573 25.914 0 50.833 5.59 73.482 16.2.674.431 1.404.777 2.174 1.038 3.021 1.468 6.003 3.021 8.937 4.668.639.476 1.332.877 2.068 1.19 14.333 8.311 27.569 18.756 39.325 31.201 1.945 2.059 4.658 3.214 7.506 3.13 44.075-1.035 81.824 29.894 90.424 72.099h-296.487zm316.815 0c-2.684-16.213-8.87-31.161-17.723-44.093 7.294 1.381 15.066 3.137 22.897 5.383.973.33 4.14 1.372 9.132 2.701.863.229 1.729.339 2.581.339 4.42 0 8.465-2.955 9.656-7.429 1.422-5.336-1.752-10.815-7.089-12.237-5.111-1.361-7.941-2.344-7.957-2.35-.183-.064-.366-.123-.552-.176-18.811-5.418-37.235-8.22-50.261-9.656-18.564-15.067-42.051-24.175-67.442-24.593-6.048-6.125-12.453-11.794-19.18-17.012 25.324-2.177 56.715-1.786 91.244 5.486.287.074 14.372 3.3 21.274 5.278 4.166 1.44 39.044 12.941 89.757 12.939 21.096-.001 44.937-2.002 70.438-7.536.211-.038.419-.086.626-.137 2.58-.565 5.172-1.154 7.785-1.793v38.99c-16.15 4.161-32.78 6.865-49.546 8.042-5.51.387-9.662 5.167-9.275 10.676.37 5.271 4.761 9.3 9.965 9.3.235 0 .473-.008.711-.025 16.256-1.141 32.393-3.639 48.146-7.404v35.307z"/><path d="m118.367 390.352c-5.522 0-10 4.477-10 10s4.478 10 10 10h.057c5.522 0 9.972-4.477 9.972-10s-4.507-10-10.029-10z"/><path d="m219.477 448.347c-5.522 0-10 4.477-10 10s4.478 10 10 10h.028c5.522 0 9.986-4.477 9.986-10s-4.492-10-10.014-10z"/><path d="m91.551 444.634c-5.522 0-10 4.477-10 10s4.478 10 10 10h.057c5.522 0 9.972-4.477 9.972-10s-4.506-10-10.029-10z"/><path d="m52.945 407.189c-5.522 0-10 4.477-10 10s4.478 10 10 10h.057c5.522 0 9.972-4.477 9.972-10s-4.507-10-10.029-10z"/><path d="m157.002 436.442c-5.522 0-10 4.477-10 10s4.478 10 10 10h.028c5.522 0 9.986-4.477 9.986-10s-4.491-10-10.014-10z"/><path d="m397.716 443.756c-5.522 0-10 4.477-10 10s4.478 10 10 10h.057c5.522 0 9.972-4.477 9.972-10s-4.506-10-10.029-10z"/></svg>