<svg xmlns="http://www.w3.org/2000/svg"  viewBox="0 0 60 60">
  <g fill="none" fill-rule="evenodd" stroke-linecap="round" stroke-linejoin="round" transform="translate(11 5)">
    <path fill="#89714D" stroke="#89714D" stroke-width="2" d="M21.7435535,13.3054524 C21.7435535,13.3054524 4.97225822,31.3080172 13.3579059,49.293305 L18.4753336,49.975168 C18.4753336,49.975168 15.1575404,44.2737799 16.376739,33.2199979 C17.5959377,22.1662158 21.7435535,13.3054524 21.7435535,13.3054524 Z"/>
    <path stroke="#89714D" stroke-width="3" d="M0.741137193,50.5550971 C0.741137193,50.5550971 17.8706409,46.4558567 29.4099048,54.1665521"/>
    <path fill="#49A25A" stroke="#49A25A" stroke-width="2" d="M21.2240064,13.0216248 C21.2240064,13.0216248 9.35014585,13.1719341 9,6.82121026e-13 C9,6.82121026e-13 14.0068553,0.160099584 18.2903831,4.13897738 C22.5739108,8.11785518 21.2240064,13.0216248 21.2240064,13.0216248 Z"/>
    <path fill="#BDD764" stroke="#BDD764" stroke-width="2" d="M36.9368504,20.4805509 C36.9368504,20.4805509 25.0629899,20.6308602 24.712844,7.45892608 C24.712844,7.45892608 29.7196994,7.61902566 34.0032271,11.5979035 C38.2867548,15.5767813 36.9368504,20.4805509 36.9368504,20.4805509 Z" transform="rotate(-39 30.926 13.97)"/>
    <path fill="#BDD764" stroke="#BDD764" stroke-width="2" d="M22.0166278,13.1168537 C22.0166278,13.1168537 12.5315912,6.08053458 5,17.6647185 C5,17.6647185 6.819837,19.5283238 13.5083139,18.5965212 C20.1967908,17.6647185 22.0166278,13.1168537 22.0166278,13.1168537 Z"/>
    <path fill="#49A25A" stroke="#49A25A" stroke-width="2" d="M37.3269498,21.3779852 C37.3269498,21.3779852 25.621589,14.3416661 16.3269498,25.92585 C16.3269498,25.92585 18.5727871,27.7894553 26.8269498,26.8576526 C35.0811125,25.92585 37.3269498,21.3779852 37.3269498,21.3779852 Z" transform="rotate(-107 26.827 23.19)"/>
  </g>
</svg>
